<svg width="138" height="138" viewBox="0 0 138 138" fill="none" xmlns="http://www.w3.org/2000/svg">
<path d="M86.0027 50.5742L86.8623 49.2733C87.2107 48.7389 87.3037 48.1117 87.1875 47.4845C87.0481 46.8805 86.6764 46.3461 86.1421 45.9977L85.8401 45.7886L86.0027 45.5098C87.0714 43.9069 87.4198 41.9786 87.0249 40.0969C86.63 38.2152 85.4917 36.5657 83.8654 35.5203C80.5433 33.3598 76.0364 34.3123 73.8758 37.6576L73.6899 37.9364L73.3879 37.7505C72.8768 37.4021 72.2263 37.2627 71.6223 37.4021C70.9951 37.5182 70.4607 37.8899 70.1123 38.4242L69.2527 39.7484C57.9621 33.3133 50.7835 31.7336 45.3015 34.4284C44.5349 34.8002 44.0238 35.5668 44.0006 36.4031C43.9309 37.2627 44.3491 38.0758 45.0692 38.5404L62.6791 49.9238L61.8428 51.2248C61.1458 52.3167 61.4479 53.7803 62.5397 54.4772L62.865 54.6863L37.9607 93.134C36.9153 94.7602 36.5668 96.6883 36.985 98.5934C37.3799 100.475 38.495 102.101 40.1213 103.147C41.2597 103.913 42.6071 104.308 44.0242 104.308C44.5585 104.308 45.0696 104.262 45.5574 104.146C47.4391 103.751 49.0654 102.636 50.1108 101.009L75.0151 62.538L75.3171 62.747C76.316 63.444 77.919 63.0955 78.5927 62.0269L79.4058 60.7491L97.0157 72.1558C97.8056 72.6437 98.8742 72.6205 99.5247 72.1791C100.315 71.7144 100.756 70.8317 100.663 69.9257C99.9661 63.1886 95.8309 57.7291 86.0039 50.5732L86.0027 50.5742ZM82.0069 56.7771L83.4472 54.5469C88.535 58.2871 91.8106 61.4234 93.7389 64.3971L82.0069 56.7771ZM77.8484 40.2362C78.5918 39.0747 80.1484 38.7494 81.3099 39.4928C81.8442 39.8413 82.2391 40.4221 82.3785 41.0726C82.5179 41.7463 82.4017 42.3968 82.03 42.9543L81.8674 43.2331L77.6625 40.515L77.8484 40.2362ZM53.1538 38.1221C56.5921 38.7029 61.0525 40.5614 66.6746 43.7441L65.2343 45.9511L53.1538 38.1221ZM46.1378 98.4305V98.4538C45.7893 98.9881 45.2317 99.383 44.558 99.5224C43.9075 99.6618 43.2338 99.5224 42.6763 99.1739C42.1187 98.8022 41.747 98.2447 41.6077 97.5942C41.4683 96.9437 41.5844 96.2932 41.9561 95.7125L66.8366 57.2648L71.0183 59.9828L46.1378 98.4305ZM75.898 57.4731L67.0932 51.8046L72.8082 42.9998L81.5897 48.6915L75.898 57.4731Z" fill="#FFD700"/>
<path d="M122.987 58.288C123.963 61.2617 126.774 63.399 130.05 63.399C134.162 63.399 137.484 60.0768 137.484 55.9649C137.484 51.8529 134.162 48.5308 130.05 48.5308C126.774 48.5308 123.963 50.6681 122.987 53.6417H118.341C117.063 53.6417 116.018 54.6871 116.018 55.9649V66.419H112.37C112.301 66.419 112.208 66.419 112.138 66.4422V48.9022H117.203C118.503 48.9022 119.526 47.8568 119.526 46.579V33.3138H122.987C123.963 36.2642 126.774 38.4247 130.05 38.4247C134.161 38.4247 137.484 35.0794 137.484 30.9906C137.484 26.8787 134.161 23.5333 130.05 23.5333C126.774 23.5333 123.963 25.6938 122.987 28.6675H117.203C115.925 28.6675 114.879 29.6897 114.879 30.9906V44.2559H112.138V27.6689C112.138 26.3912 111.093 25.3458 109.815 25.3458H93.2278V22.6044H106.493C107.794 22.6044 108.816 21.5589 108.816 20.2812V14.4966C111.79 13.5209 113.95 10.7098 113.95 7.43418C113.95 3.32223 110.605 7.40875e-05 106.493 7.40875e-05C102.404 7.40875e-05 99.059 3.32223 99.059 7.43418C99.059 10.7098 101.219 13.5209 104.17 14.4966V17.958H90.9047C89.6269 17.958 88.5815 18.9802 88.5815 20.2812V25.3456H71.0415C71.0647 25.2759 71.0647 25.183 71.0647 25.1133V21.466H81.5188C82.7966 21.466 83.842 20.4206 83.842 19.1428V14.4965C86.7925 13.5208 88.953 10.7097 88.953 7.4341C88.953 3.32215 85.6076 0 81.5188 0C77.4301 0 74.0847 3.32215 74.0847 7.4341C74.0847 10.7097 76.2452 13.5209 79.1957 14.4965V16.8197H58.288V14.4965C61.2617 13.5208 63.399 10.7097 63.399 7.4341C63.399 3.32215 60.0768 0 55.9649 0C51.8529 0 48.5308 3.32215 48.5308 7.4341C48.5308 10.7097 50.6681 13.5209 53.6417 14.4965V19.1428C53.6417 20.4206 54.6871 21.466 55.9649 21.466H66.419V25.1133C66.419 25.183 66.419 25.2759 66.4422 25.3456H48.9022V20.2812C48.9022 18.9802 47.8568 17.958 46.579 17.958H33.3138V14.4966C36.2642 13.5209 38.4247 10.7098 38.4247 7.43418C38.4247 3.32223 35.0794 7.40875e-05 30.9906 7.40875e-05C26.8787 7.40875e-05 23.5333 3.32223 23.5333 7.43418C23.5333 10.7098 25.6938 13.5209 28.6675 14.4966V20.2812C28.6675 21.5589 29.6897 22.6044 30.9906 22.6044H44.2559V25.3458H27.6689C26.3912 25.3458 25.3458 26.3912 25.3458 27.6689V44.2559H22.6044V30.9906C22.6044 29.6897 21.5589 28.6675 20.2812 28.6675H14.4966C13.5209 25.6938 10.7098 23.5333 7.43418 23.5333C3.32223 23.5333 7.4442e-05 26.8787 7.4442e-05 30.9906C7.4442e-05 35.0794 3.32223 38.4247 7.43418 38.4247C10.7098 38.4247 13.5209 36.2642 14.4966 33.3138H17.958V46.579C17.958 47.8568 18.9802 48.9022 20.2812 48.9022H25.3456V66.4422C25.2759 66.419 25.183 66.419 25.1133 66.419H21.466V55.9649C21.466 54.6871 20.4206 53.6417 19.1428 53.6417H14.4965C13.5208 50.6681 10.7097 48.5308 7.4341 48.5308C3.32215 48.5308 0 51.8529 0 55.9649C0 60.0768 3.32215 63.399 7.4341 63.399C10.7097 63.399 13.5209 61.2617 14.4965 58.288H16.8197V79.1957H14.4965C13.5208 76.222 10.7097 74.0847 7.4341 74.0847C3.32215 74.0847 0 77.4069 0 81.5188C0 85.6308 3.32215 88.9529 7.4341 88.9529C10.7097 88.9529 13.5209 86.8156 14.4965 83.842H19.1428C20.4206 83.842 21.466 82.7966 21.466 81.5188V71.0647H25.1133C25.183 71.0647 25.2759 71.0647 25.3456 71.0415V88.5815H20.2812C18.9802 88.5815 17.958 89.6269 17.958 90.9047V104.17H14.4966C13.5209 101.219 10.7098 99.059 7.43418 99.059C3.32223 99.059 7.4442e-05 102.404 7.4442e-05 106.493C7.4442e-05 110.605 3.32223 113.95 7.43418 113.95C10.7098 113.95 13.5209 111.79 14.4966 108.816H20.2812C21.5589 108.816 22.6044 107.794 22.6044 106.493V93.2278H25.3458V109.815C25.3458 111.093 26.3912 112.138 27.6689 112.138H44.2559V114.879H30.9906C29.6897 114.879 28.6675 115.925 28.6675 117.203V122.987C25.6938 123.963 23.5333 126.774 23.5333 130.05C23.5333 134.161 26.8787 137.484 30.9906 137.484C35.0794 137.484 38.4247 134.161 38.4247 130.05C38.4247 126.774 36.2642 123.963 33.3138 122.987V119.526H46.579C47.8568 119.526 48.9022 118.503 48.9022 117.203V112.138H66.4422C66.419 112.208 66.419 112.301 66.419 112.37V116.018H55.9649C54.6871 116.018 53.6417 117.063 53.6417 118.341V122.987C50.6681 123.963 48.5308 126.774 48.5308 130.05C48.5308 134.162 51.8529 137.484 55.9649 137.484C60.0768 137.484 63.399 134.162 63.399 130.05C63.399 126.774 61.2617 123.963 58.288 122.987V120.664H79.1957V122.987C76.2452 123.963 74.0847 126.774 74.0847 130.05C74.0847 134.162 77.4301 137.484 81.5188 137.484C85.6076 137.484 88.953 134.162 88.953 130.05C88.953 126.774 86.7925 123.963 83.842 122.987V118.341C83.842 117.063 82.7966 116.018 81.5188 116.018H71.0647V112.37C71.0647 112.301 71.0647 112.208 71.0415 112.138H88.5815V117.203C88.5815 118.503 89.6269 119.526 90.9047 119.526H104.17V122.987C101.219 123.963 99.059 126.774 99.059 130.05C99.059 134.161 102.404 137.484 106.493 137.484C110.605 137.484 113.95 134.161 113.95 130.05C113.95 126.774 111.79 123.963 108.816 122.987V117.203C108.816 115.925 107.794 114.879 106.493 114.879H93.2278V112.138H109.815C111.093 112.138 112.138 111.093 112.138 109.815V93.2278H114.879V106.493C114.879 107.794 115.925 108.816 117.203 108.816H122.987C123.963 111.79 126.774 113.95 130.05 113.95C134.161 113.95 137.484 110.605 137.484 106.493C137.484 102.404 134.161 99.059 130.05 99.059C126.774 99.059 123.963 101.219 122.987 104.17H119.526V90.9047C119.526 89.6269 118.503 88.5815 117.203 88.5815H112.138V71.0415C112.208 71.0647 112.301 71.0647 112.37 71.0647H116.018V81.5188C116.018 82.7966 117.063 83.842 118.341 83.842H122.987C123.963 86.8156 126.774 88.9529 130.05 88.9529C134.162 88.9529 137.484 85.6308 137.484 81.5188C137.484 77.4069 134.162 74.0847 130.05 74.0847C126.774 74.0847 123.963 76.222 122.987 79.1957H120.664V58.288H122.987ZM130.05 53.1771C131.583 53.1771 132.837 54.4316 132.837 55.9649C132.837 57.4981 131.583 58.7526 130.05 58.7526C128.516 58.7526 127.262 57.4981 127.262 55.9649C127.262 54.4316 128.516 53.1771 130.05 53.1771ZM130.05 28.1806C131.583 28.1806 132.837 29.4351 132.837 30.9916C132.837 32.5248 131.583 33.7794 130.05 33.7794C128.516 33.7794 127.262 32.5249 127.262 30.9916C127.262 29.4351 128.516 28.1806 130.05 28.1806ZM103.705 7.43503C103.705 5.90182 104.959 4.64724 106.492 4.64724C108.049 4.64724 109.303 5.90175 109.303 7.43503C109.303 8.96832 108.049 10.2228 106.492 10.2228C104.959 10.2228 103.705 8.96832 103.705 7.43503ZM78.7305 7.43503C78.7305 5.90182 79.985 4.64724 81.5183 4.64724C83.0516 4.64724 84.3061 5.90175 84.3061 7.43503C84.3061 8.96832 83.0516 10.2228 81.5183 10.2228C79.985 10.2228 78.7305 8.96832 78.7305 7.43503ZM55.9643 10.2228C54.4311 10.2228 53.1765 8.96832 53.1765 7.43503C53.1765 5.90175 54.431 4.64724 55.9643 4.64724C57.4976 4.64724 58.7521 5.90175 58.7521 7.43503C58.7521 8.96832 57.4976 10.2228 55.9643 10.2228ZM30.9902 10.2228C29.4336 10.2228 28.1792 8.96832 28.1792 7.43503C28.1792 5.90175 29.4337 4.64724 30.9902 4.64724C32.5234 4.64724 33.778 5.90175 33.778 7.43503C33.778 8.96832 32.5235 10.2228 30.9902 10.2228ZM7.43299 33.78C5.89978 33.78 4.6452 32.5255 4.6452 30.9922C4.6452 29.4357 5.89971 28.1812 7.43299 28.1812C8.96627 28.1812 10.2208 29.4357 10.2208 30.9922C10.2208 32.5254 8.96627 33.78 7.43299 33.78ZM7.43299 58.7541C5.89978 58.7541 4.6452 57.4996 4.6452 55.9663C4.6452 54.4331 5.89971 53.1786 7.43299 53.1786C8.96627 53.1786 10.2208 54.4331 10.2208 55.9663C10.2208 57.4996 8.96627 58.7541 7.43299 58.7541ZM7.43299 84.3096C5.89978 84.3096 4.6452 83.0551 4.6452 81.5218C4.6452 79.9885 5.89971 78.734 7.43299 78.734C8.96627 78.734 10.2208 79.9885 10.2208 81.5218C10.2208 83.0551 8.96627 84.3096 7.43299 84.3096ZM7.43299 109.306C5.89978 109.306 4.6452 108.052 4.6452 106.495C4.6452 104.962 5.89971 103.707 7.43299 103.707C8.96627 103.707 10.2208 104.962 10.2208 106.495C10.2208 108.052 8.96627 109.306 7.43299 109.306ZM33.778 130.052C33.778 131.585 32.5235 132.839 30.9902 132.839C29.4336 132.839 28.1792 131.585 28.1792 130.052C28.1792 128.518 29.4337 127.264 30.9902 127.264C32.5234 127.264 33.778 128.518 33.778 130.052ZM58.7521 130.052C58.7521 131.585 57.4976 132.839 55.9643 132.839C54.431 132.839 53.1765 131.585 53.1765 130.052C53.1765 128.518 54.431 127.264 55.9643 127.264C57.4976 127.264 58.7521 128.518 58.7521 130.052ZM81.5183 127.264C83.0515 127.264 84.3061 128.518 84.3061 130.052C84.3061 131.585 83.0516 132.839 81.5183 132.839C79.985 132.839 78.7305 131.585 78.7305 130.052C78.7305 128.518 79.985 127.264 81.5183 127.264ZM106.492 127.264C108.049 127.264 109.303 128.518 109.303 130.052C109.303 131.585 108.049 132.839 106.492 132.839C104.959 132.839 103.705 131.585 103.705 130.052C103.705 128.518 104.959 127.264 106.492 127.264ZM107.491 107.494H29.9909V29.9931H107.491V107.494ZM130.049 103.707C131.583 103.707 132.837 104.961 132.837 106.495C132.837 108.051 131.583 109.306 130.049 109.306C128.516 109.306 127.262 108.051 127.262 106.495C127.262 104.961 128.516 103.707 130.049 103.707ZM130.049 78.7327C131.583 78.7327 132.837 79.9872 132.837 81.5205C132.837 83.0538 131.583 84.3083 130.049 84.3083C128.516 84.3083 127.262 83.0538 127.262 81.5205C127.262 79.9872 128.516 78.7327 130.049 78.7327Z" fill="#FFD700"/>
</svg>
